<svg viewBox="0 0 20 16" xmlns="http://www.w3.org/2000/svg">
    <path d="M18,4L18,12C18,13.104 17.104,14 16,14L4,14C2.896,14 2,13.104 2,12L2,4C2,2.896 2.896,2 4,2L16,2C17.104,2 18,2.896 18,4ZM3.5,5L3.5,12C3.5,12.276 3.724,12.5 4,12.5L16,12.5C16.276,12.5 16.5,12.276 16.5,12L16.5,5L3.5,5ZM12,6.5L12,8L10.5,8L10.5,6.5L12,6.5ZM9.5,9.5L9.5,11L8,11L8,9.5L9.5,9.5ZM14.5,6.5L14.5,8L13,8L13,6.5L14.5,6.5ZM7,9.5L7,11L5.5,11L5.5,9.5L7,9.5ZM12,9.5L12,11L10.5,11L10.5,9.5L12,9.5ZM9.5,6.5L9.5,8L8,8L8,6.5L9.5,6.5Z"/>
</svg>
