<svg viewBox="0 0 20 16" xmlns="http://www.w3.org/2000/svg">
    <path d="M10,0.5C14.139,0.5 17.5,3.861 17.5,8C17.5,12.139 14.139,15.5 10,15.5C5.861,15.5 2.5,12.139 2.5,8C2.5,3.861 5.861,0.5 10,0.5ZM10,2C6.689,2 4,4.689 4,8C4,11.311 6.689,14 10,14C13.311,14 16,11.311 16,8C16,4.689 13.311,2 10,2ZM10.738,8.543C10.738,8.838 10.498,9.078 10.203,9.078L6.731,9.078C6.534,9.078 6.345,9 6.206,8.86C6.066,8.721 5.988,8.532 5.988,8.335L5.988,8.239C5.988,7.874 6.284,7.578 6.649,7.578L9.238,7.578L9.238,4.077C9.238,3.878 9.317,3.688 9.457,3.547C9.598,3.407 9.788,3.328 9.987,3.328L9.994,3.328C10.191,3.328 10.38,3.406 10.52,3.546C10.66,3.686 10.738,3.875 10.738,4.072L10.738,8.543Z"/>
</svg>