<svg viewBox="0 0 20 16" xmlns="http://www.w3.org/2000/svg">
    <path d="M6,14C3.792,14 2,12.208 2,10C2,8.507 2.82,7.204 4.033,6.517C4.011,6.348 4,6.175 4,6C4,3.792 5.792,2 8,2C9.611,2 11.001,2.955 11.635,4.328C12.044,4.119 12.508,4 13,4C14.564,4 15.85,5.199 15.988,6.727C17.187,7.386 18,8.661 18,10.125C18,12.223 16.329,13.933 14.247,13.998L14.247,14L6,14ZM6,12.5L14.593,12.5C14.817,12.5 15.039,12.447 15.239,12.345C15.984,11.879 16.5,11.062 16.5,10.125C16.5,8.914 15.637,7.903 14.493,7.674C14.497,7.616 14.5,7.558 14.5,7.5C14.5,6.396 13.604,5.5 12.5,5.5C11.902,5.5 11.366,5.763 10.999,6.179C10.961,4.694 9.744,3.5 8.25,3.5C6.732,3.5 5.5,4.732 5.5,6.25C5.5,6.703 5.61,7.131 5.804,7.508C4.516,7.608 3.5,8.686 3.5,10C3.5,11.38 4.62,12.5 6,12.5Z"/>
</svg>
