<svg viewBox="0 0 20 16" xmlns="http://www.w3.org/2000/svg">
    <path d="M2.177,12.823C2.063,12.572 2,12.293 2,12L2,4C2,3.707 2.063,3.428 2.177,3.177C2.39,2.706 2.78,2.332 3.262,2.141C3.49,2.05 3.739,2 4,2L16,2C16.261,2 16.51,2.05 16.738,2.141C17.22,2.332 17.61,2.706 17.823,3.177C17.937,3.428 18,3.707 18,4L18,12C18,12.293 17.937,12.572 17.823,12.823C17.61,13.294 17.22,13.668 16.738,13.859C16.51,13.95 16.261,14 16,14L4,14C3.739,14 3.49,13.95 3.262,13.859C2.78,13.668 2.39,13.294 2.177,12.823ZM4.621,3.5L10,8.879L15.379,3.5L4.621,3.5ZM3.5,4.5L3.5,11.5L7,8L3.5,4.5ZM15.379,12.5L11.939,9.061L10.696,10.304C10.312,10.688 9.688,10.688 9.304,10.304L8.061,9.061L4.621,12.5L15.379,12.5ZM16.5,11.5L16.5,4.5L13,8L16.5,11.5Z"/>
</svg>
