<svg viewBox="0 0 20 16" xmlns="http://www.w3.org/2000/svg">
    <path d="M2,8C2.678,4.023 6.004,1 10,1C13.996,1 17.322,4.023 18,8C17.322,11.977 13.996,15 10,15C6.004,15 2.678,11.977 2,8ZM3.526,7.999L3.527,8.002C4.175,11.13 6.817,13.5 10,13.5C13.183,13.5 15.825,11.13 16.473,7.998C15.825,4.87 13.183,2.5 10,2.5C6.817,2.5 4.175,4.87 3.526,7.999ZM10,4.25C12.07,4.25 13.75,5.93 13.75,8C13.75,10.07 12.07,11.75 10,11.75C7.93,11.75 6.25,10.07 6.25,8C6.25,5.93 7.93,4.25 10,4.25ZM7.756,7.838C7.752,7.891 7.75,7.945 7.75,8C7.75,9.242 8.758,10.25 10,10.25C11.242,10.25 12.25,9.242 12.25,8C12.25,6.758 11.242,5.75 10,5.75C9.945,5.75 9.891,5.752 9.838,5.756C10.237,6.025 10.5,6.482 10.5,7C10.5,7.828 9.828,8.5 9,8.5C8.482,8.5 8.025,8.237 7.756,7.838Z"/>
</svg>
