<svg viewBox="0 0 20 16" xmlns="http://www.w3.org/2000/svg">
    <path d="M15.856,3.856C15.948,3.948 16,4.073 16,4.204L16,14C16,15.104 15.104,16 14,16L6,16C4.896,16 4,15.104 4,14L4,2C4,0.896 4.896,0 6,0L11.795,0C11.926,-0 12.052,0.052 12.145,0.145L15.856,3.856ZM10,1.5L6,1.5C5.724,1.5 5.5,1.724 5.5,2L5.5,14C5.5,14.276 5.724,14.5 6,14.5L14,14.5C14.276,14.5 14.5,14.276 14.5,14L14.5,6L11.018,6C10.748,6 10.489,5.893 10.298,5.702C10.107,5.511 10,5.252 10,4.982L10,1.5ZM11.5,1.5L11.5,3.989C11.5,4.271 11.729,4.5 12.011,4.5L14.5,4.5L11.5,1.5Z"/>
</svg>
