<svg viewBox="0 0 20 16" xmlns="http://www.w3.org/2000/svg">
    <path d="M3,4.5C2.586,4.5 2.25,4.164 2.25,3.75C2.25,3.336 2.586,3 3,3L17,3C17.414,3 17.75,3.336 17.75,3.75C17.75,4.164 17.414,4.5 17,4.5L3,4.5ZM5,9C4.586,9 4.25,8.664 4.25,8.25C4.25,7.836 4.586,7.5 5,7.5L15,7.5C15.414,7.5 15.75,7.836 15.75,8.25C15.75,8.664 15.414,9 15,9L5,9ZM7,13.5C6.586,13.5 6.25,13.164 6.25,12.75C6.25,12.336 6.586,12 7,12L13,12C13.414,12 13.75,12.336 13.75,12.75C13.75,13.164 13.414,13.5 13,13.5L7,13.5Z"/>
</svg>
