<svg viewBox="0 0 20 16" xmlns="http://www.w3.org/2000/svg">
    <path id="Merged" d="M13,1.556L13,6L16,14C16,15.104 15.104,16 14,16L6,16C4.896,16 4,15.104 4,14L7,6L7,1.556L6,1.556C5.571,1.556 5.222,1.207 5.222,0.778C5.222,0.349 5.571,0 6,0L14,0C14.429,0 14.778,0.349 14.778,0.778C14.778,1.207 14.429,1.556 14,1.556L13,1.556ZM8.5,1.556L8.5,6L7.631,8.316C8.594,8.48 9.576,8.91 10.601,9.345C11.383,9.678 12.196,10.013 13.062,10.166L11.5,6L11.5,1.556L8.5,1.556ZM7.091,9.757L5.5,14C5.5,14.276 5.724,14.5 6,14.5L14,14.5C14.276,14.5 14.5,14.276 14.5,14L13.653,11.741C12.353,11.669 11.152,11.21 10.014,10.726C8.997,10.294 8.041,9.833 7.091,9.757Z"/>
</svg>
