<svg viewBox="0 0 20 16" xmlns="http://www.w3.org/2000/svg">
    <path d="M2,12L2,4C2,2.896 2.896,2 4,2L6.923,2C6.966,2 7.009,2.006 7.05,2.017C7.062,2.021 7.074,2.025 7.086,2.031C7.255,2.117 9,3 9,3L16,3C17.104,3 18,3.896 18,5L18,12C18,13.104 17.104,14 16,14L4,14C2.896,14 2,13.104 2,12ZM16.5,6L16.5,5C16.5,4.724 16.276,4.5 16,4.5L9.084,4.5C9.039,4.5 8.75,4.512 8.616,4.506C8.566,4.495 8.518,4.478 8.473,4.454C8.106,4.267 6.644,3.505 6.644,3.505L4,3.5C3.724,3.5 3.5,3.724 3.5,4L3.5,6L16.5,6ZM3.5,7.5L3.5,12C3.5,12.276 3.724,12.5 4,12.5L16,12.5C16.276,12.5 16.5,12.276 16.5,12L16.5,7.5L3.5,7.5Z"/>
</svg>
