<?xml version="1.0" encoding="UTF-8" standalone="no"?>
<!DOCTYPE svg PUBLIC "-//W3C//DTD SVG 1.1//EN" "http://www.w3.org/Graphics/SVG/1.1/DTD/svg11.dtd">
<svg width="100%" height="100%" viewBox="0 0 16 16" version="1.1" xmlns="http://www.w3.org/2000/svg" xmlns:xlink="http://www.w3.org/1999/xlink" xml:space="preserve" xmlns:serif="http://www.serif.com/" style="fill-rule:evenodd;clip-rule:evenodd;stroke-linejoin:round;stroke-miterlimit:2;">
    <rect id="Folder_16x16" x="0" y="0" width="16" height="16" style="fill:none;"/>
    <clipPath id="_clip1">
        <rect id="Folder_16x161" serif:id="Folder_16x16" x="0" y="0" width="16" height="16"/>
    </clipPath>
    <g clip-path="url(#_clip1)">
        <path d="M16,5L16,13C16,13.552 15.552,14 15,14L1,14C0.448,14 0,13.552 0,13L0,3C0,2.448 0.448,2 1,2L6.586,2C6.851,2 7.105,2.105 7.293,2.293L9,4L15,4C15.265,4 15.52,4.105 15.707,4.293C15.895,4.48 16,4.735 16,5ZM1.5,3.5L1.5,12.5L14.5,12.5L14.5,5.5L9,5.5C8.602,5.5 8.221,5.342 7.939,5.061L6.379,3.5L1.5,3.5Z"/>
    </g>
</svg>
