<svg viewBox="0 0 20 16" xmlns="http://www.w3.org/2000/svg">
    <path id="home" d="M16,6.227L17.47,7.697C17.763,7.99 17.763,8.464 17.47,8.757C17.178,9.049 16.703,9.049 16.411,8.757L16,8.346L16,14C16,15.104 15.104,16 14,16L6,16C4.896,16 4,15.104 4,14L4,8.346L3.589,8.757C3.297,9.049 2.822,9.049 2.53,8.757C2.237,8.464 2.237,7.99 2.53,7.697L9.636,0.163C9.837,-0.038 10.163,-0.038 10.364,0.163L14,4.227L14,3.5C14,3.224 14.224,3 14.5,3L15.5,3C15.776,3 16,3.224 16,3.5L16,6.227ZM14.5,6.846L10,1.918L5.5,6.846L5.5,14C5.5,14.276 5.724,14.5 6,14.5L8,14.5L8,11C8,10.724 8.225,10.5 8.501,10.5L11.5,10.5C11.776,10.5 12,10.724 12,11L12,14.5L14,14.5C14.276,14.5 14.5,14.276 14.5,14L14.5,6.846Z"/>
</svg>
