<svg viewBox="0 0 20 16" xmlns="http://www.w3.org/2000/svg">
    <path d="M6.017,15.512C5.231,16.194 4.039,16.161 3.293,15.415L2.585,14.707C1.805,13.927 1.805,12.66 2.585,11.879L7.267,7.197C7.094,6.663 7,6.092 7,5.5C7,2.464 9.464,0 12.5,0C15.536,0 18,2.464 18,5.5C18,8.536 15.536,11 12.5,11C11.908,11 11.337,10.906 10.803,10.733L9.515,12.021C9.82,12.435 10,12.947 10,13.5C10,14.88 8.88,16 7.5,16C6.945,16 6.432,15.819 6.017,15.512ZM6.908,14.306C7.074,14.428 7.278,14.5 7.5,14.5C8.052,14.5 8.5,14.052 8.5,13.5C8.5,13.279 8.428,13.075 8.307,12.91C7.867,12.312 7.93,11.484 8.454,10.96L9.742,9.672C10.141,9.273 10.73,9.132 11.266,9.306C11.655,9.432 12.069,9.5 12.5,9.5C14.708,9.5 16.5,7.708 16.5,5.5C16.5,3.292 14.708,1.5 12.5,1.5C10.292,1.5 8.5,3.292 8.5,5.5C8.5,5.931 8.568,6.345 8.694,6.734C8.868,7.27 8.727,7.859 8.328,8.258L3.646,12.94C3.451,13.135 3.451,13.452 3.646,13.647L4.353,14.354C4.54,14.54 4.837,14.549 5.033,14.379C5.564,13.919 6.343,13.888 6.908,14.306ZM13,3.5C13.828,3.5 14.5,4.172 14.5,5C14.5,5.828 13.828,6.5 13,6.5C12.172,6.5 11.5,5.828 11.5,5C11.5,4.172 12.172,3.5 13,3.5Z"/>
</svg>
