<svg viewBox="0 0 20 16" xmlns="http://www.w3.org/2000/svg">
    <path d="M4.642,13.246C3.317,11.893 2.5,10.041 2.5,8C2.5,3.861 5.861,0.5 10,0.5C14.139,0.5 17.5,3.861 17.5,8C17.5,12.139 14.139,15.5 10,15.5C7.962,15.5 6.114,14.686 4.761,13.365C4.739,13.348 4.718,13.329 4.698,13.309C4.678,13.289 4.659,13.268 4.642,13.246ZM6.325,12.742C7.341,13.53 8.616,14 10,14C11.387,14 12.665,13.528 13.681,12.737L12.251,11.306C12.25,11.307 12.249,11.308 12.248,11.308C11.607,11.745 10.833,12 10,12C9.169,12 8.396,11.746 7.756,11.311L6.325,12.742ZM14.741,11.675C15.53,10.66 16,9.384 16,8C16,6.615 15.53,5.339 14.74,4.323L13.309,5.753C13.745,6.394 14,7.167 14,8C14,8.832 13.746,9.604 13.311,10.245L14.741,11.675ZM13.679,3.262C12.663,2.471 11.386,2 10,2C8.619,2 7.346,2.468 6.332,3.253L7.763,4.684C8.402,4.252 9.172,4 10,4C10.772,4 11.493,4.219 12.104,4.598C12.153,4.629 12.201,4.66 12.249,4.692L13.679,3.262ZM5.269,4.311C4.474,5.329 4,6.61 4,8C4,9.387 4.472,10.665 5.264,11.682L6.694,10.252C6.658,10.198 6.622,10.144 6.588,10.088C6.215,9.48 6,8.765 6,8C6,7.167 6.255,6.393 6.692,5.752C6.694,5.749 6.697,5.745 6.699,5.741L5.269,4.311ZM8.199,6.267C8.037,6.435 7.898,6.626 7.788,6.835C7.604,7.183 7.5,7.579 7.5,8C7.5,8.347 7.571,8.677 7.699,8.978C7.901,9.452 8.245,9.851 8.677,10.121C9.061,10.361 9.514,10.5 10,10.5C10.419,10.5 10.814,10.397 11.161,10.214C11.363,10.108 11.548,9.975 11.713,9.82C11.729,9.8 11.747,9.78 11.766,9.761C11.785,9.742 11.804,9.725 11.824,9.709C11.978,9.545 12.109,9.361 12.214,9.161C12.397,8.814 12.5,8.419 12.5,8C12.5,7.507 12.357,7.047 12.11,6.659C12.023,6.524 11.925,6.397 11.815,6.281C11.798,6.267 11.781,6.252 11.766,6.236C11.75,6.22 11.734,6.204 11.72,6.187C11.529,6.005 11.309,5.853 11.068,5.739C10.744,5.586 10.382,5.5 10,5.5C9.579,5.5 9.183,5.604 8.835,5.788C8.632,5.895 8.446,6.029 8.282,6.185C8.27,6.199 8.257,6.212 8.244,6.226C8.229,6.24 8.214,6.254 8.199,6.267Z"/>
</svg>
