<svg viewBox="0 0 20 16" xmlns="http://www.w3.org/2000/svg">
    <path d="M4,6C4,2.689 6.689,0 10,0C13.311,0 16,2.689 16,6C16,7.707 15.285,9.249 14.139,10.342L12.45,13L7.55,13L5.861,10.342C4.715,9.249 4,7.707 4,6ZM5.5,6C5.5,7.281 6.036,8.437 6.896,9.257C6.984,9.341 7.062,9.435 7.127,9.538L8.374,11.5L11.626,11.5L12.873,9.538C12.938,9.435 13.016,9.341 13.104,9.257C13.964,8.437 14.5,7.281 14.5,6C14.5,3.516 12.484,1.5 10,1.5C7.516,1.5 5.5,3.516 5.5,6ZM12.45,14C12.218,15.141 11.209,16 10,16C8.791,16 7.782,15.141 7.55,14L12.45,14Z"/>
</svg>
