<svg viewBox="0 0 20 16" xmlns="http://www.w3.org/2000/svg">
    <path d="M5.404,11.249C2.867,8.713 2.867,4.594 5.404,2.057C7.941,-0.48 12.059,-0.48 14.596,2.057C17.133,4.594 17.133,8.713 14.596,11.249L10,15.846L5.404,11.249ZM13.536,10.189C15.487,8.237 15.487,5.069 13.536,3.118C11.584,1.166 8.416,1.166 6.464,3.118C4.513,5.069 4.513,8.237 6.464,10.189L10,13.724L13.536,10.189ZM10,3C11.656,3 13,4.344 13,6C13,7.656 11.656,9 10,9C8.344,9 7,7.656 7,6C7,4.344 8.344,3 10,3ZM10,4.5C9.172,4.5 8.5,5.172 8.5,6C8.5,6.828 9.172,7.5 10,7.5C10.828,7.5 11.5,6.828 11.5,6C11.5,5.172 10.828,4.5 10,4.5Z"/>
</svg>
