<svg viewBox="0 0 20 16" xmlns="http://www.w3.org/2000/svg">
    <path d="M13,5L14,5C15.104,5 16,5.896 16,7L16,14C16,15.104 15.104,16 14,16L6,16C4.896,16 4,15.104 4,14L4,7C4,5.896 4.896,5 6,5L7,5L7,3C7,1.344 8.344,-0 10,-0C11.656,-0 13,1.344 13,3L13,5ZM11.5,5L11.5,3C11.5,2.172 10.828,1.5 10,1.5C9.172,1.5 8.5,2.172 8.5,3L8.5,5L11.5,5ZM14,6.5L6,6.5C5.724,6.5 5.5,6.724 5.5,7L5.5,14C5.5,14.276 5.724,14.5 6,14.5L14,14.5C14.276,14.5 14.5,14.276 14.5,14L14.5,7C14.5,6.724 14.276,6.5 14,6.5ZM10,8.75C10.828,8.75 11.5,9.422 11.5,10.25C11.5,11.078 10.828,11.75 10,11.75C9.172,11.75 8.5,11.078 8.5,10.25C8.5,9.422 9.172,8.75 10,8.75Z"/>
</svg>
