<svg viewBox="0 0 20 16" xmlns="http://www.w3.org/2000/svg">
    <path d="M8.403,13.84C8.298,13.945 8.169,14.025 8.028,14.074L2.762,15.903C2.573,15.969 2.362,15.921 2.22,15.779C2.079,15.637 2.03,15.427 2.096,15.237L3.927,9.967C3.975,9.829 4.054,9.704 4.157,9.601L13.179,0.58C13.953,-0.194 15.207,-0.194 15.981,0.58L17.418,2.018C17.791,2.39 18,2.895 18,3.422C18,3.949 17.791,4.454 17.418,4.826L8.403,13.84ZM10.91,4.97L5.304,10.575L4.175,13.825L7.425,12.696L13.031,7.091L10.91,4.97ZM14.092,6.031L16.358,3.765C16.449,3.674 16.5,3.551 16.5,3.422C16.5,3.293 16.449,3.169 16.358,3.078L14.92,1.641C14.732,1.453 14.427,1.453 14.239,1.641L11.97,3.91L14.092,6.031Z"/>
</svg>
