<svg viewBox="0 0 20 16" version="1.1" xmlns="http://www.w3.org/2000/svg">
    <path d="M4,15.001C4,12.915 5.067,11.075 6.684,10C7.634,9.368 8.774,9 10,9C11.226,9 12.366,9.368 13.316,10C14.933,11.075 16,12.914 16,15C16,15.552 15.552,16 15,16L4.999,16C4.734,16 4.48,15.895 4.293,15.707C4.105,15.52 4,15.265 4,15.001ZM12.827,11.5C12.054,10.875 11.071,10.5 10,10.5C8.929,10.5 7.946,10.875 7.173,11.5C6.275,12.227 5.661,13.291 5.528,14.5L14.472,14.5C14.339,13.291 13.725,12.227 12.827,11.5ZM10,0C12.208,0 14,1.792 14,4C14,6.208 12.208,8 10,8C7.792,8 6,6.208 6,4C6,1.792 7.792,0 10,0ZM10,1.5C8.62,1.5 7.5,2.62 7.5,4C7.5,5.38 8.62,6.5 10,6.5C11.38,6.5 12.5,5.38 12.5,4C12.5,2.62 11.38,1.5 10,1.5Z"/>
</svg>
