<svg viewBox="0 0 20 16" xmlns="http://www.w3.org/2000/svg">
    <path d="M2.177,12.823C2.063,12.572 2,12.293 2,12L2,4C2,2.896 2.896,2 4,2L16,2C17.104,2 18,2.896 18,4L18,12C18,12.293 17.937,12.572 17.823,12.823C17.509,13.517 16.811,14 16,14L4,14C3.189,14 2.491,13.517 2.177,12.823ZM16.5,11.5L16.5,4C16.5,3.724 16.276,3.5 16,3.5L4,3.5C3.724,3.5 3.5,3.724 3.5,4L3.5,11.5L5.413,9.587C5.754,9.246 6.289,9.193 6.691,9.461L9,11L12.295,8.528C12.7,8.225 13.265,8.265 13.623,8.623L16.5,11.5ZM8.5,5C9.328,5 10,5.672 10,6.5C10,7.328 9.328,8 8.5,8C7.672,8 7,7.328 7,6.5C7,5.672 7.672,5 8.5,5Z"/>
</svg>
