<svg viewBox="0 0 20 16" xmlns="http://www.w3.org/2000/svg">
    <path d="M15.302,13.302C13.945,14.66 12.07,15.5 10,15.5C5.861,15.5 2.5,12.139 2.5,8C2.5,3.861 5.861,0.5 10,0.5C11.362,0.5 12.64,0.864 13.742,1.5C14.314,1.83 14.838,2.234 15.302,2.698C15.766,3.162 16.17,3.686 16.5,4.258C16.821,4.815 17.073,5.417 17.244,6.052C17.411,6.673 17.5,7.326 17.5,8C17.5,8.674 17.411,9.327 17.244,9.948C16.898,11.236 16.218,12.387 15.302,13.302ZM10,2C6.689,2 4,4.689 4,8C4,11.311 6.689,14 10,14C11.656,14 13.156,13.328 14.242,12.242L10,8L10,2ZM16,8C16,7.482 15.934,6.979 15.811,6.5C15.669,5.95 15.451,5.43 15.169,4.953L12.121,8L15.169,11.047C15.697,10.154 16,9.112 16,8ZM11.5,2.189L11.5,6.5L14.242,3.758C13.495,3.012 12.554,2.461 11.5,2.189Z"/>
</svg>
