<svg viewBox="0 0 20 16" xmlns="http://www.w3.org/2000/svg">
    <path d="M4.358,12.142L3.296,13.204C3.162,13.338 2.962,13.377 2.788,13.305C2.614,13.233 2.5,13.063 2.5,12.875L2.5,9.482C2.5,9.216 2.716,9 2.982,9L6.225,9C6.438,9 6.631,9.129 6.713,9.326C6.795,9.523 6.749,9.751 6.598,9.902L5.434,11.066C6.422,12.534 8.099,13.5 10,13.5C12.189,13.5 14.081,12.219 14.966,10.366L16.434,10.759C15.363,13.252 12.884,15 10,15C7.686,15 5.633,13.875 4.358,12.142ZM14.566,4.934C13.578,3.466 11.901,2.5 10,2.5C7.811,2.5 5.919,3.781 5.034,5.634L3.566,5.241C4.109,3.978 5.013,2.906 6.148,2.156C7.253,1.425 8.577,1 10,1C12.314,1 14.367,2.125 15.642,3.858L16.715,2.785C16.846,2.654 17.044,2.614 17.216,2.685C17.388,2.757 17.5,2.924 17.5,3.11L17.5,6.487C17.5,6.77 17.27,7 16.987,7L13.708,7C13.506,7 13.323,6.878 13.246,6.691C13.168,6.504 13.211,6.289 13.354,6.146L14.566,4.934Z"/>
</svg>
