<svg viewBox="0 0 20 16" xmlns="http://www.w3.org/2000/svg">
    <path d="M2.5,8C2.5,3.861 5.861,0.5 10,0.5C14.139,0.5 17.5,3.861 17.5,8C17.5,12.139 14.139,15.5 10,15.5C5.861,15.5 2.5,12.139 2.5,8ZM9.25,2.047C6.538,2.385 4.385,4.538 4.047,7.25L6.75,7.25C7.164,7.25 7.5,7.586 7.5,8C7.5,8.414 7.164,8.75 6.75,8.75L4.047,8.75C4.385,11.462 6.538,13.615 9.25,13.953L9.25,11.25C9.25,10.836 9.586,10.5 10,10.5C10.414,10.5 10.75,10.836 10.75,11.25L10.75,13.953C13.462,13.615 15.615,11.462 15.953,8.75L13.25,8.75C12.836,8.75 12.5,8.414 12.5,8C12.5,7.586 12.836,7.25 13.25,7.25L15.953,7.25C15.615,4.538 13.462,2.385 10.75,2.047L10.75,4.75C10.75,5.164 10.414,5.5 10,5.5C9.586,5.5 9.25,5.164 9.25,4.75L9.25,2.047ZM10,7C10.552,7 11,7.448 11,8C11,8.552 10.552,9 10,9C9.448,9 9,8.552 9,8C9,7.448 9.448,7 10,7Z"/>
</svg>
