<svg viewBox="0 0 20 16" xmlns="http://www.w3.org/2000/svg">
    <path d="M10,0.5C14.139,0.5 17.5,3.861 17.5,8C17.5,12.139 14.139,15.5 10,15.5C5.861,15.5 2.5,12.139 2.5,8C2.5,3.861 5.861,0.5 10,0.5ZM10,2C6.689,2 4,4.689 4,8C4,11.311 6.689,14 10,14C13.311,14 16,11.311 16,8C16,4.689 13.311,2 10,2ZM10,4C12.208,4 14,5.792 14,8C14,10.208 12.208,12 10,12C7.792,12 6,10.208 6,8C6,5.792 7.792,4 10,4ZM10,5.5C8.62,5.5 7.5,6.62 7.5,8C7.5,9.38 8.62,10.5 10,10.5C11.38,10.5 12.5,9.38 12.5,8C12.5,6.62 11.38,5.5 10,5.5ZM10,7C10.552,7 11,7.448 11,8C11,8.552 10.552,9 10,9C9.448,9 9,8.552 9,8C9,7.448 9.448,7 10,7Z"/>
</svg>
