<svg viewBox="0 0 20 16" xmlns="http://www.w3.org/2000/svg">
    <path d="M3,1.75C3,1.336 3.336,1 3.75,1L16.25,1C16.664,1 17,1.336 17,1.75C17,2.164 16.664,2.5 16.25,2.5L3.75,2.5C3.336,2.5 3,2.164 3,1.75ZM4,5.75C4,5.336 4.336,5 4.75,5L15.25,5C15.664,5 16,5.336 16,5.75C16,6.164 15.664,6.5 15.25,6.5L4.75,6.5C4.336,6.5 4,6.164 4,5.75ZM3,10.25C3,9.836 3.336,9.5 3.75,9.5L16.25,9.5C16.664,9.5 17,9.836 17,10.25C17,10.664 16.664,11 16.25,11L3.75,11C3.336,11 3,10.664 3,10.25ZM5,14.25C5,13.836 5.336,13.5 5.75,13.5L14.25,13.5C14.664,13.5 15,13.836 15,14.25C15,14.664 14.664,15 14.25,15L5.75,15C5.336,15 5,14.664 5,14.25Z"/>
</svg>
