<svg viewBox="0 0 20 16" xmlns="http://www.w3.org/2000/svg">
    <path d="M17,1.75C17,2.164 16.664,2.5 16.25,2.5L3.75,2.5C3.336,2.5 3,2.164 3,1.75C3,1.336 3.336,1 3.75,1L16.25,1C16.664,1 17,1.336 17,1.75ZM17,5.75C17,6.164 16.664,6.5 16.25,6.5L3.75,6.5C3.336,6.5 3,6.164 3,5.75C3,5.336 3.336,5 3.75,5L16.25,5C16.664,5 17,5.336 17,5.75ZM17,10.25C17,10.664 16.664,11 16.25,11L3.75,11C3.336,11 3,10.664 3,10.25C3,9.836 3.336,9.5 3.75,9.5L16.25,9.5C16.664,9.5 17,9.836 17,10.25ZM17,14.25C17,14.664 16.664,15 16.25,15L3.75,15C3.336,15 3,14.664 3,14.25C3,13.836 3.336,13.5 3.75,13.5L16.25,13.5C16.664,13.5 17,13.836 17,14.25Z"/>
</svg>
