<svg viewBox="0 0 20 16" xmlns="http://www.w3.org/2000/svg">
    <path d="M4.568,4.75L4,4.75C3.586,4.75 3.25,4.414 3.25,4C3.25,3.586 3.586,3.25 4,3.25L5.411,3.25L6.829,0.415C6.956,0.161 7.216,-0 7.5,0L12.5,0C12.784,-0 13.044,0.161 13.171,0.415L14.589,3.25L16,3.25C16.414,3.25 16.75,3.586 16.75,4C16.75,4.414 16.414,4.75 16,4.75L15.432,4.75L14.5,15C14.5,15.552 14.052,16 13.5,16L6.5,16C5.948,16 5.5,15.552 5.5,15L4.568,4.75ZM12.911,3.25L12.036,1.5L7.964,1.5L7.089,3.25L12.911,3.25ZM6.071,4.75L7,14.5L13,14.5L13.929,4.75L6.071,4.75Z"/>
</svg>
