<svg viewBox="0 0 20 16" xmlns="http://www.w3.org/2000/svg">
    <path d="M17,3L17,13C17,14.104 16.104,15 15,15L5,15C3.896,15 3,14.104 3,13L3,3C3,1.896 3.896,1 5,1L15,1C16.104,1 17,1.896 17,3ZM15.5,3C15.5,2.724 15.276,2.5 15,2.5L5,2.5C4.724,2.5 4.5,2.724 4.5,3L4.5,13C4.5,13.276 4.724,13.5 5,13.5L15,13.5C15.276,13.5 15.5,13.276 15.5,13L15.5,3ZM5.75,3C6.164,3 6.5,3.336 6.5,3.75C6.5,4.164 6.164,4.5 5.75,4.5C5.336,4.5 5,4.164 5,3.75C5,3.336 5.336,3 5.75,3ZM5.75,11.5C6.164,11.5 6.5,11.836 6.5,12.25C6.5,12.664 6.164,13 5.75,13C5.336,13 5,12.664 5,12.25C5,11.836 5.336,11.5 5.75,11.5ZM14.25,3C14.664,3 15,3.336 15,3.75C15,4.164 14.664,4.5 14.25,4.5C13.836,4.5 13.5,4.164 13.5,3.75C13.5,3.336 13.836,3 14.25,3ZM14.25,11.5C14.664,11.5 15,11.836 15,12.25C15,12.664 14.664,13 14.25,13C13.836,13 13.5,12.664 13.5,12.25C13.5,11.836 13.836,11.5 14.25,11.5ZM10,4.25C12.07,4.25 13.75,5.93 13.75,8C13.75,10.07 12.07,11.75 10,11.75C7.93,11.75 6.25,10.07 6.25,8C6.25,5.93 7.93,4.25 10,4.25ZM10,5.75C8.758,5.75 7.75,6.758 7.75,8C7.75,9.242 8.758,10.25 10,10.25C11.242,10.25 12.25,9.242 12.25,8C12.25,6.758 11.242,5.75 10,5.75ZM10,7C10.552,7 11,7.448 11,8C11,8.552 10.552,9 10,9C9.448,9 9,8.552 9,8C9,7.448 9.448,7 10,7Z"/>
</svg>
